<svg width="37" height="36" viewBox="0 0 37 36" fill="none" xmlns="http://www.w3.org/2000/svg">
<path d="M20.4917 0.0237122H36.3461V7.01587H19.4624C16.415 7.01587 14.1042 7.57328 12.5301 8.68808C10.3865 9.80465 8.74605 11.9595 7.6088 15.1527C7.37888 16.0687 7.25252 17.0073 7.23207 17.9512C7.23207 20.6626 8.25348 23.2122 10.2963 25.6001C11.6334 26.8819 12.8891 27.7304 14.0635 28.1453C15.3511 28.7238 17.1189 29.0131 19.3669 29.0131H36.3461V36.0026H20.1628C16.0259 36.0026 12.9617 35.5032 10.9701 34.5045C6.51841 32.5703 3.32951 29.4052 1.40344 25.0093C0.463284 22.7909 -0.0141669 20.4059 1.14218e-06 17.9987C1.14218e-06 12.6427 2.13478 8.07089 6.40434 4.28336C9.19883 2.17508 11.7262 0.930152 13.9866 0.548586C15.1433 0.200428 17.3117 0.0254705 20.4917 0.0237122ZM17.4275 14.554H36.3461V21.4697H17.4275V14.554Z" fill="white"/>
</svg>
